# xmcd CD database file
#
# Track frame offsets:
#	150
#	19875
#	34275
#	52200
#	76575
#	104625
#	126075
#	149025
#	169350
#	191700
#	208650
#	228300
#	246225
#	266025
#	287175
#
# Disc length: 4042 seconds
#
# Revision: 1
# Processed by: cddbd v1.5.1PL2 Copyright (c) Steve Scherf et al.
# Submitted via: freeDBTagger 0.8.2.1
#
DISCID=ed0fc80f
DTITLE=スピッツ - CYCLE HIT 1991-1997 Spitz Complete Single Collection
DYEAR=2006
DGENRE=blues
TTITLE0=ヒバリのこころ
TTITLE1=夏の魔物
TTITLE2=魔女旅に出る
TTITLE3=惑星のかけら
TTITLE4=日なたの窓に憧れて
TTITLE5=裸のままで
TTITLE6=君が思い出になる前に
TTITLE7=空も飛べるはず
TTITLE8=青い車
TTITLE9=スパイダー
TTITLE10=ロビンソン
TTITLE11=涙がキラリ☆
TTITLE12=チェリー
TTITLE13=渚
TTITLE14=スカーレット
EXTD=YEAR: 2006
EXTT0=
EXTT1=
EXTT2=
EXTT3=
EXTT4=
EXTT5=
EXTT6=
EXTT7=
EXTT8=
EXTT9=
EXTT10=
EXTT11=
EXTT12=
EXTT13=
EXTT14=
PLAYORDER=
